<?xml version="1.0" standalone="no"?>
<!DOCTYPE svg PUBLIC "-//W3C//DTD SVG 1.1//EN" "http://www.w3.org/Graphics/SVG/1.1/DTD/svg11.dtd" >
<svg xmlns="http://www.w3.org/2000/svg">
<metadata></metadata>
<defs>
<font id="naumanmedium" horiz-adv-x="980" >
<font-face units-per-em="2048" ascent="1536" descent="-512" />
<missing-glyph horiz-adv-x="581" />
<glyph horiz-adv-x="2048" />
<glyph horiz-adv-x="2048" />
<glyph unicode="&#xd;" horiz-adv-x="2048" />
<glyph unicode=" "  horiz-adv-x="581" />
<glyph unicode="&#x09;" horiz-adv-x="581" />
<glyph unicode="&#xa0;" horiz-adv-x="581" />
<glyph unicode="!" horiz-adv-x="372" d="M90 1434h191l-18 -1011h-153zM92 0v207h190v-207h-190z" />
<glyph unicode="&#x22;" horiz-adv-x="727" d="M89 1477h164l-16 -478h-132zM473 1477h164l-15 -478h-133z" />
<glyph unicode="#" horiz-adv-x="1390" d="M89 410v121h261l80 376h-239v122h265l78 364h139l-78 -364h323l77 364h140l-78 -364h244v-122h-270l-79 -376h247v-121h-273l-87 -410h-140l87 410h-322l-87 -410h-139l87 410h-236zM490 531h322l80 376h-322z" />
<glyph unicode="$" horiz-adv-x="1380" d="M116 111l1 156q299 -157 556 -157q185 0 288.5 66.5t103.5 196.5q0 35 -7 64.5t-16.5 52t-29 42t-35.5 33t-45.5 26t-49 19.5t-56.5 15t-57 11.5t-61.5 11t-60.5 10.5q-13 2 -39 7q-72 13 -110 21.5t-103 27.5t-101.5 44.5t-76 64.5t-57.5 96t-18 130q0 86 35.5 156 t98 117t141 76t172.5 41l1 251l162 -1l-1 -237l33 -1q220 -6 404 -81v-141q-231 96 -467 96q-112 0 -200 -25t-145 -83t-57 -142q0 -38 9.5 -69t22 -52.5t39 -39.5t46.5 -28t59.5 -20.5t62.5 -15.5t70 -13q15 -3 22 -4q181 -33 197 -37q244 -56 335 -181q62 -87 62 -211 q0 -199 -130.5 -303t-362.5 -117l-1 -240h-161l1 242q-229 12 -474 125z" />
<glyph unicode="%" horiz-adv-x="1955" d="M89 1034q0 86 19.5 158.5t59.5 132t110.5 93t164.5 33.5t164.5 -33.5t110.5 -93t59.5 -132t19.5 -158.5t-19.5 -158.5t-59.5 -132t-110.5 -93.5t-164.5 -34t-164.5 34t-110.5 93.5t-59.5 132t-19.5 158.5zM220 1034q0 -322 223 -322q222 0 222 322t-222 322 q-223 0 -223 -322zM508 -35l780 1503h147l-780 -1503h-147zM1159 400q0 86 19.5 158.5t59.5 132t110.5 93t164.5 33.5t164 -33.5t110.5 -93t59.5 -132t19 -158.5t-19 -158.5t-59.5 -132t-110.5 -93.5t-164 -34t-164.5 34t-110.5 93.5t-59.5 132t-19.5 158.5zM1290 400 q0 -322 223 -322q222 0 222 322t-222 322q-223 0 -223 -322z" />
<glyph unicode="&#x26;" horiz-adv-x="1576" d="M117 404q2 123 64 219t213 168l-74 69q-101 96 -101 237q0 72 22 134t66.5 113t122 80.5t180.5 29.5t180 -30.5t120.5 -82.5t64 -113t20.5 -131q0 -45 -10.5 -83t-36 -77.5t-75.5 -73.5t-123 -61l-113 -37l469 -434q32 69 34 156l7 270h136v-346q0 -106 -44 -191 l249 -220h-212l-125 115q-158 -158 -445 -158q-151 0 -266.5 35.5t-184.5 98t-103.5 141.5t-34.5 172zM286 402q0 -146 103.5 -235t300.5 -89q241 0 340 138l-527 483q-125 -57 -171 -126.5t-46 -170.5zM373 1103q0 -101 64 -168l87 -81l132 42q109 33 150 84.5t41 122.5 q0 104 -56.5 169.5t-177.5 65.5q-123 0 -181.5 -64t-58.5 -171z" />
<glyph unicode="'" horiz-adv-x="342" d="M89 1477h164l-16 -478h-132z" />
<glyph unicode="(" horiz-adv-x="655" d="M75 548q0 289 86 532.5t252 410.5h164q-158 -164 -241 -407t-83 -536t83 -536.5t241 -406.5h-164q-166 166 -252 410t-86 533z" />
<glyph unicode=")" horiz-adv-x="655" d="M79 -395q158 163 240.5 406.5t82.5 536.5t-82.5 536t-240.5 407h164q166 -167 251.5 -410.5t85.5 -532.5t-85.5 -533t-251.5 -410h-164z" />
<glyph unicode="*" horiz-adv-x="1048" d="M89 1116l40 122l336 -116l-5 356h128l-6 -356l337 116l40 -122l-340 -105l213 -284l-104 -76l-204 291l-205 -291l-103 76l213 284z" />
<glyph unicode="+" horiz-adv-x="1312" d="M89 538v122h495v507h146v-507h495v-122h-495v-507h-146v507h-495z" />
<glyph unicode="," horiz-adv-x="477" d="M55 -266l139 518h194l-194 -518h-139z" />
<glyph unicode="-" d="M89 638v122h803v-121z" />
<glyph unicode="." horiz-adv-x="366" d="M89 0v221h189v-221h-189z" />
<glyph unicode="/" horiz-adv-x="901" d="M68 -35l597 1503h168l-596 -1503h-169z" />
<glyph unicode="0" horiz-adv-x="1452" d="M127 696q0 119 19.5 222.5t64.5 195.5t113 157.5t170.5 103.5t231.5 38t231.5 -38t170.5 -103.5t113 -157.5t64.5 -195.5t19.5 -222.5t-19.5 -222.5t-64.5 -195.5t-113 -157t-170.5 -103t-231.5 -38t-231.5 38t-170.5 103t-113 157t-64.5 195.5t-19.5 222.5zM305 696 q0 -277 103 -432.5t318 -155.5t318.5 155.5t103.5 432.5t-103.5 433t-318.5 156t-318 -156t-103 -433z" />
<glyph unicode="1" horiz-adv-x="880" d="M106 0v122h251v1129l-251 -57v128l315 71h113v-1271h251v-122h-679z" />
<glyph unicode="2" horiz-adv-x="1234" d="M113 0v239q0 117 70 201.5t194 149.5l294 153q11 6 40 20.5t40.5 20.5t36.5 20.5t36 22.5t31 23.5t29 27.5t22 30t18.5 35.5t10 40t4.5 46.5q0 36 -7 72q-18 91 -100.5 134t-203.5 43q-209 0 -458 -107v142q214 100 459 100q85 0 161 -15t143 -47t112.5 -87t59.5 -129 q9 -50 9 -93q0 -36 -6.5 -69.5t-16 -60t-28 -53.5t-33.5 -45.5t-42 -40t-44 -34t-49 -31t-47.5 -26.5t-49.5 -25t-45 -23l-247 -128q-99 -51 -152.5 -108.5t-58.5 -139.5l-2 -124h813v-135h-993z" />
<glyph unicode="3" horiz-adv-x="1259" d="M89 88l12 132q95 -54 215.5 -84t244.5 -30q159 0 264.5 71.5t105.5 209.5q0 120 -84 196.5t-259 84.5l-115 -1v139h115q164 6 242 71.5t78 168.5q0 121 -89.5 181.5t-235.5 60.5q-222 0 -454 -99l1 138q217 86 452 86q82 0 154.5 -12t137 -39t111 -67t73.5 -100.5 t27 -136.5q0 -114 -67 -196.5t-204 -118.5q149 -40 221.5 -135.5t72.5 -226.5q0 -104 -44.5 -183t-121 -125.5t-171.5 -69.5t-205 -23q-127 0 -252.5 28.5t-224.5 79.5z" />
<glyph unicode="4" horiz-adv-x="1359" d="M82 394v122l746 879h179v-879h219v-122h-219v-394h-168v394h-757zM260 516h579v680z" />
<glyph unicode="5" horiz-adv-x="1265" d="M121 77v106q87 -36 199 -59t219 -23q68 0 127.5 10t113.5 34.5t92.5 61t61 93.5t22.5 129q0 144 -96 231.5t-296 87.5q-177 0 -275 -71l-124 19v697h872v-135h-704v-449q109 61 278 61q135 0 237.5 -34.5t163 -96t90.5 -139t30 -171.5q0 -100 -31 -178.5t-82.5 -128.5 t-124 -83t-150 -46.5t-165.5 -13.5q-123 0 -245 27t-213 71z" />
<glyph unicode="6" horiz-adv-x="1337" d="M127 645v51q0 188 46 328t130 224t193 124.5t244 40.5q177 0 393 -72v-131q-214 79 -381 79q-195 0 -313 -126.5t-127 -395.5l-1 -46q112 186 402 186q132 0 231.5 -36t158.5 -99.5t88 -144t29 -177.5q0 -99 -30.5 -181.5t-92.5 -148.5t-167 -103t-243 -37 q-119 0 -214.5 35.5t-159 96t-106.5 146t-61.5 181.5t-18.5 206zM306 550q9 -133 50 -231t125 -157.5t204 -59.5q183 0 270.5 95.5t87.5 252.5q0 75 -21 137t-65 110.5t-117 75t-171 26.5q-158 0 -248 -67t-115 -182z" />
<glyph unicode="7" horiz-adv-x="1124" d="M82 1260v135h964v-79l-685 -1316h-187l658 1260h-750z" />
<glyph unicode="8" horiz-adv-x="1363" d="M130 381q0 131 73 226.5t222 135.5q-138 36 -205 118.5t-67 196.5q0 160 131 257.5t398 97.5t397.5 -97.5t130.5 -257.5q0 -114 -67 -196.5t-204 -118.5q149 -40 222 -135.5t73 -226.5q0 -87 -32 -158.5t-97 -126.5t-172.5 -85.5t-250.5 -30.5t-250.5 30.5t-172.5 85.5 t-97 126.5t-32 158.5zM308 387q0 -127 91.5 -204t282.5 -77t282.5 77t91.5 204t-91.5 204.5t-282.5 77.5t-282.5 -77.5t-91.5 -204.5zM331 1046q0 -108 85.5 -174.5t265.5 -66.5t265.5 66.5t85.5 174.5t-85.5 175t-265.5 67t-265.5 -67t-85.5 -175z" />
<glyph unicode="9" horiz-adv-x="1337" d="M117 943q0 99 30.5 181.5t92.5 148.5t167 103t243 37q119 0 214.5 -35.5t159 -96.5t106.5 -146.5t61.5 -181.5t18.5 -206v-51q0 -186 -45.5 -326t-129 -224t-193 -125t-244.5 -41q-181 0 -394 71v131q214 -79 381 -79q195 0 313 126.5t127 395.5l1 46 q-112 -186 -402 -186q-132 0 -231.5 36t-158.5 100t-88 144.5t-29 177.5zM294 942q0 -157 91.5 -252.5t282.5 -95.5q158 0 248 66.5t115 181.5q-7 99 -32 179t-70.5 141.5t-115.5 95t-161 33.5q-183 0 -270.5 -96t-87.5 -253z" />
<glyph unicode=":" horiz-adv-x="366" d="M89 0v221h189v-221h-189zM89 842v221h189v-221h-189z" />
<glyph unicode=";" horiz-adv-x="477" d="M55 -266l138 518h195l-195 -518h-138zM188 842v221h190v-221h-190z" />
<glyph unicode="&#x3c;" horiz-adv-x="1232" d="M75 558v133l1070 469v-146l-897 -389l897 -390v-146z" />
<glyph unicode="=" horiz-adv-x="1335" d="M89 357v122h1158v-122h-1158zM89 777v121h1158v-121h-1158z" />
<glyph unicode="&#x3e;" horiz-adv-x="1232" d="M89 89v146l896 390l-896 389v146l1070 -469v-133z" />
<glyph unicode="?" horiz-adv-x="1144" d="M117 1375q77 36 187.5 58t222.5 22q88 0 165 -15t143.5 -46.5t111.5 -87t59 -130.5q9 -51 9 -94q0 -79 -25.5 -140.5t-82 -109.5t-95.5 -72t-116 -64q-14 -7 -21 -11q-72 -38 -101.5 -73t-30.5 -86l-2 -102h-173l-3 118q-3 76 45 128t152 107q13 7 40.5 21t41 21.5 t37.5 21t37 23t32.5 24.5t30 28t23 31t19 36.5t11 41t4.5 47.5q0 253 -327 253q-185 0 -393 -75zM359 1v207h190v-207h-190z" />
<glyph unicode="@" horiz-adv-x="1951" d="M89 550q0 196 61.5 363t173.5 288.5t280 190t371 68.5q199 0 366 -66t281.5 -182.5t177.5 -279t63 -352.5q0 -204 -124 -323.5t-314 -121.5h-239l-5 103q-58 -52 -135 -85.5t-148 -33.5q-97 0 -171 34t-117.5 93.5t-64.5 132.5t-21 159q0 88 20.5 162t62.5 133 t114.5 92.5t169.5 33.5q136 0 277 -81v81h143v-686h116q128 2 205 86.5t77 228.5q0 162 -51.5 298t-145 232.5t-231.5 150t-306 53.5q-229 0 -396 -98.5t-252 -272t-85 -401.5q0 -360 199 -567.5t534 -209.5q123 0 264 32v-137q-132 -33 -264 -33q-200 0 -367 68.5 t-280.5 189.5t-176 290t-62.5 367zM666 538q0 -150 66 -235.5t206 -85.5q59 1 122 31t108 80v460q-115 71 -229 73q-140 0 -206.5 -86.5t-66.5 -236.5z" />
<glyph unicode="A" horiz-adv-x="1515" d="M79 0l582 1434h194l582 -1434h-183l-158 389h-676l-158 -389h-183zM462 511h592l-296 729z" />
<glyph unicode="B" horiz-adv-x="1449" d="M212 0v1434h603q93 0 169 -18.5t138 -58.5t96.5 -111t34.5 -169q0 -127 -61 -207t-168 -116q136 -30 216 -121t80 -246q0 -106 -36 -183t-101 -120.5t-144.5 -63.5t-177.5 -20h-649zM390 132h448q137 0 220.5 66.5t83.5 204.5t-83.5 205t-220.5 67h-448v-543zM390 797 h408q126 1 201.5 63t75.5 190q0 129 -77.5 191t-205.5 62h-402v-506z" />
<glyph unicode="C" horiz-adv-x="1429" d="M158 716q0 149 36.5 271.5t101.5 208t154 144t193 86t220 27.5q225 0 453 -98v-160q-246 119 -441 119q-113 0 -207 -36t-165 -107.5t-111 -187.5t-40 -267t39.5 -266.5t111 -187t165.5 -107.5t207 -36q195 0 441 119v-160q-225 -96 -458 -96q-146 0 -270.5 44.5 t-221.5 132t-152.5 230.5t-55.5 327z" />
<glyph unicode="D" horiz-adv-x="1605" d="M212 0v1434h533q148 0 267 -37t199.5 -101.5t134.5 -156t78 -196.5t24 -227t-24 -227t-78 -196t-134.5 -155.5t-199.5 -101t-267 -36.5h-533zM390 135h355q270 0 397.5 151.5t127.5 429.5t-127.5 430t-397.5 152h-355v-1163z" />
<glyph unicode="E" horiz-adv-x="1345" d="M212 0v1434h1020v-136h-842v-471h805v-135h-805v-557h853v-135h-1031z" />
<glyph unicode="F" horiz-adv-x="1292" d="M212 0v1434h978v-136h-800v-484h763v-136h-763v-678h-178z" />
<glyph unicode="G" horiz-adv-x="1617" d="M158 716q0 148 39.5 270.5t108.5 208t165.5 144.5t208 86.5t237.5 27.5q226 0 464 -87l-7 -141q-263 95 -447 95q-121 0 -223.5 -35.5t-182 -107t-124.5 -189.5t-45 -272q0 -149 43 -265.5t120 -189t177.5 -109.5t219.5 -37q183 0 350 70v446h-350v122h503v-675 q-232 -96 -503 -96q-345 0 -549.5 196t-204.5 538z" />
<glyph unicode="H" horiz-adv-x="1605" d="M212 0v1434h178v-650h825v650h178v-1434h-178v649h-825v-649h-178z" />
<glyph unicode="I" horiz-adv-x="897" d="M109 0v129h251v1175l-251 1v129h679v-130h-250v-1175h250v-129h-679z" />
<glyph unicode="J" horiz-adv-x="1095" d="M82 11v129q106 -25 239 -25q197 0 290.5 91t93.5 254v838h-457v136h634v-974q0 -83 -19.5 -153.5t-62 -131.5t-107 -103.5t-159.5 -67t-213 -24.5q-130 0 -239 31z" />
<glyph unicode="K" horiz-adv-x="1492" d="M212 0v1434h178v-776l737 776h216l-614 -646l655 -788h-224l-541 664l-229 -236v-428h-178z" />
<glyph unicode="L" horiz-adv-x="1232" d="M212 0v1434h178v-1299h761v-135h-939z" />
<glyph unicode="M" horiz-adv-x="1869" d="M202 0v1434h215l513 -899l512 899h215v-1434h-170v1198l-485 -830h-145l-484 830v-1198h-171z" />
<glyph unicode="N" horiz-adv-x="1548" d="M202 0v1434h188l787 -1171v1171h170v-1434h-181l-793 1180v-1180h-171z" />
<glyph unicode="O" horiz-adv-x="1736" d="M158 716q0 122 24 228.5t78.5 201t135.5 162t201.5 106.5t270.5 39t270.5 -39t202 -106.5t136 -162t78.5 -201t24 -228.5t-24.5 -228.5t-78.5 -200.5t-135.5 -161t-202 -105.5t-270.5 -38.5t-270.5 38.5t-201.5 105.5t-135.5 161t-78.5 200.5t-24 228.5zM352 716 q0 -134 30 -241.5t90.5 -189t161 -126t234.5 -44.5t234.5 44.5t161.5 126t91 189.5t30 241t-30 241t-91 190t-161.5 126.5t-234.5 44.5q-107 0 -193.5 -29.5t-146 -82t-99.5 -128t-58.5 -166t-18.5 -196.5z" />
<glyph unicode="P" horiz-adv-x="1441" d="M212 0v1434h658q91 1 167 -25t135.5 -78t92.5 -139.5t33 -202.5t-34 -202.5t-95 -139t-138.5 -77t-170.5 -25.5h-470v-545h-178zM390 677h440q132 0 212 76t80 236q0 163 -80.5 240t-211.5 74h-440v-626z" />
<glyph unicode="Q" horiz-adv-x="1736" d="M158 716q0 122 24 228.5t78.5 201t135.5 162t201.5 106.5t270.5 39t270.5 -39t202 -106.5t136 -162t78.5 -201t24 -228.5q0 -127 -27 -237.5t-82.5 -205t-148.5 -163.5t-217 -101v-23q0 -106 63 -167t192 -61q73 0 153 23v-109q-97 -29 -187 -26q-183 0 -283.5 90.5 t-100.5 249.5v8q-59 -8 -142 -8q-135 8 -243.5 50t-182 109t-122.5 158t-71 193.5t-22 219.5zM352 716q0 -134 30 -241.5t90.5 -189t161 -126t234.5 -44.5t234.5 44.5t161.5 126t91 189.5t30 241t-30 241t-91 190t-161.5 126.5t-234.5 44.5q-107 0 -193.5 -29.5t-146 -82 t-99.5 -128t-58.5 -166t-18.5 -196.5z" />
<glyph unicode="R" horiz-adv-x="1507" d="M212 0v1434h646q74 0 138 -14.5t119.5 -46.5t95.5 -79.5t62.5 -117.5t22.5 -157q0 -180 -90 -277.5t-241 -118.5l418 -623h-193l-407 606h-393v-606h-178zM390 734h442q130 0 209 69.5t79 215.5t-79 216t-209 70h-442v-571z" />
<glyph unicode="S" horiz-adv-x="1378" d="M113 111v156q299 -157 557 -157q185 0 288.5 66.5t103.5 196.5q0 35 -7 64.5t-16.5 52t-29 42t-35.5 33t-46 26t-49.5 19.5t-56 15t-57 11.5t-62 11t-60.5 10.5q-13 2 -39 7q-72 13 -110 21.5t-103 27.5t-101.5 44.5t-76 64.5t-57.5 96t-18 130q0 104 49.5 184t133.5 127 t187 70.5t219 23.5q245 0 457 -84v-141q-231 96 -466 96q-112 0 -200 -25t-145 -83t-57 -142q0 -53 18.5 -92.5t40 -61.5t72.5 -40.5t79.5 -24.5t98.5 -19q4 -1 7 -1.5t7 -1t7 -1.5q181 -33 196 -37q244 -55 335 -180q64 -86 64 -212q0 -215 -149 -319.5t-410 -104.5 q-264 0 -569 131z" />
<glyph unicode="T" horiz-adv-x="1370" d="M82 1298v136h1207v-136h-515v-1298h-178v1298h-514z" />
<glyph unicode="U" horiz-adv-x="1609" d="M212 582v852h178v-852q0 -221 102.5 -344t317.5 -123t317 122.5t102 344.5v852h178v-852q0 -130 -33.5 -236.5t-103 -190t-186.5 -129.5t-274 -46t-274 46t-187 129t-103.5 190t-33.5 237z" />
<glyph unicode="V" horiz-adv-x="1507" d="M82 1434h184l487 -1242l488 1242h184l-573 -1434h-197z" />
<glyph unicode="W" horiz-adv-x="2095" d="M82 1433l182 1l357 -1226l331 1225h191l331 -1225l358 1226l181 -1l-423 -1433h-209l-333 1208l-333 -1208h-210z" />
<glyph unicode="X" horiz-adv-x="1462" d="M82 0l542 739l-511 694h197l422 -577l419 577h197l-510 -698l542 -735h-197l-454 620l-450 -620h-197z" />
<glyph unicode="Y" horiz-adv-x="1445" d="M82 1434h194l447 -727l447 727h193l-552 -890v-544h-177v545z" />
<glyph unicode="Z" horiz-adv-x="1415" d="M116 0v121l933 1177h-897v135h1117v-120l-933 -1178h953v-135h-1173z" />
<glyph unicode="[" horiz-adv-x="681" d="M89 -369v1867h502v-122h-339v-1624h350v-121h-513z" />
<glyph unicode="\" horiz-adv-x="901" d="M69 1468h167l597 -1503h-168z" />
<glyph unicode="]" horiz-adv-x="681" d="M79 -248h350v1624h-339v122h502v-1867h-513v121z" />
<glyph unicode="^" horiz-adv-x="1409" d="M89 634l528 800h175l528 -800h-192l-423 644l-423 -644h-193z" />
<glyph unicode="_" horiz-adv-x="1449" d="M89 -176h1272v-121h-1272v121z" />
<glyph unicode="`" horiz-adv-x="464" d="M95 1478h162l117 -280h-125z" />
<glyph unicode="a" horiz-adv-x="1208" d="M93 300q0 80 33.5 143t89.5 100.5t122.5 56.5t138.5 19h409v93q0 115 -79.5 169.5t-221.5 54.5q-168 0 -410 -72v112q231 69 432 69q96 0 175.5 -18t143 -56t99 -104t35.5 -156v-711h-174v135q-103 -72 -221.5 -111.5t-230.5 -41.5q-151 0 -246 80.5t-95 237.5zM254 310 q0 -113 65.5 -167.5t174.5 -54.5q207 2 392 136v307h-353q-115 0 -197 -56t-82 -165z" />
<glyph unicode="b" horiz-adv-x="1257" d="M158 0v1434h174v-496q179 106 356 106q122 0 213.5 -42t145 -117t79 -168.5t25.5 -205.5q0 -87 -16 -163.5t-52.5 -145t-90.5 -117.5t-134.5 -77.5t-179.5 -28.5q-90 0 -189.5 44.5t-173.5 112.5l-6 -136h-151zM332 242q57 -64 138 -102.5t158 -40.5q92 0 160 30 t109.5 86t61.5 129.5t20 166.5q0 125 -34.5 215.5t-115 144.5t-201.5 54q-151 -2 -296 -94v-589z" />
<glyph unicode="c" horiz-adv-x="1089" d="M106 512q0 105 28 192.5t77 149.5t116 105.5t145.5 64t165.5 20.5q184 0 356 -84v-123q-89 42 -167.5 60t-173.5 18q-177 0 -275 -98.5t-98 -304.5t98 -304.5t275 -98.5q95 0 173.5 18t167.5 60v-122q-176 -85 -360 -85q-109 1 -203.5 35t-167.5 98t-115 167t-42 232z " />
<glyph unicode="d" horiz-adv-x="1257" d="M106 511q0 112 26 205.5t79 168.5t145 117.5t214 42.5q175 0 356 -107v496h173v-1434h-151l-6 136q-74 -68 -173 -112t-189 -44q-124 0 -217.5 43t-148 118t-81.5 168t-27 202zM279 511q0 -93 20 -166.5t61.5 -129.5t109.5 -86t160 -30q77 2 158 40.5t138 102.5v589 q-147 93 -296 95q-92 0 -160 -30.5t-109.5 -86.5t-61.5 -130.5t-20 -167.5z" />
<glyph unicode="e" horiz-adv-x="1202" d="M106 512q0 110 29 203t89.5 168t165.5 118t244 43q106 0 188.5 -28.5t135.5 -77t87 -117.5t48 -145t14 -164q0 -36 -3 -70h-821q27 -344 362 -344q81 0 214 24t201 50v-119q-216 -73 -406 -73q-94 0 -174 18t-150 58t-119 101t-77 151t-28 204zM280 560l1 -29h665l1 29 q1 178 -77 283t-239 105q-179 0 -265 -105t-86 -283z" />
<glyph unicode="f" horiz-adv-x="821" d="M82 905v119h165v49q0 108 37 185t102.5 118.5t141.5 59.5t168 18q68 0 138 -8v-109q-71 10 -126 10q-138 0 -212.5 -64t-74.5 -210v-49h315v-119h-315v-905h-174v905h-165z" />
<glyph unicode="g" horiz-adv-x="1251" d="M106 523q0 85 16 160.5t52.5 142t91 114.5t136 76t182.5 28q85 -1 179 -29t174 -74l4 90h151v-1004q0 -92 -27.5 -164t-74 -119t-113 -77t-140.5 -43t-161 -13q-173 0 -371 49v111q217 -52 350 -52q81 0 145.5 16.5t114.5 52t76.5 96t26.5 143.5v111 q-70 -60 -160.5 -97.5t-173.5 -38.5q-101 0 -182.5 28t-136 76t-91 114.5t-52.5 142t-16 160.5zM275 518q0 -91 20 -163.5t61 -127.5t109 -84.5t160 -29.5q75 1 155.5 38t137.5 98v586q-146 88 -292 90q-121 0 -201.5 -53t-115 -142t-34.5 -212z" />
<glyph unicode="h" horiz-adv-x="1257" d="M168 0v1434h174v-546q90 68 210 111t230 43q143 0 236 -75t93 -222v-745h-174v726q0 101 -60 149.5t-157 48.5q-97 -1 -202.5 -44t-175.5 -109v-771h-174z" />
<glyph unicode="i" horiz-adv-x="512" d="M168 1197v194h187v-194h-187zM175 0l1 1024h172l-1 -1024h-172z" />
<glyph unicode="j" horiz-adv-x="704" d="M-47 -252q90 -15 150 -15q56 0 99.5 11.5t81.5 40t58.5 84.5t20.5 136l1 900h-273v119h446l-1 -1019q0 -91 -22.5 -161t-58.5 -113.5t-88.5 -71t-106.5 -38t-118 -10.5q-85 0 -189 18v119zM357 1197v194h187v-194h-187z" />
<glyph unicode="k" horiz-adv-x="1187" d="M161 0l1 1434h174l-1 -958l546 548h205l-454 -448l493 -576h-195l-399 468l-196 -191v-277h-174z" />
<glyph unicode="l" horiz-adv-x="489" d="M168 0l1 1434l174 -1l-2 -1433h-173z" />
<glyph unicode="m" horiz-adv-x="1933" d="M158 0v1024h174v-131q86 66 199.5 108t216.5 42q100 0 175.5 -42t107.5 -127q87 73 210.5 121t234.5 48q65 0 120 -18t98.5 -53t68 -93.5t24.5 -133.5v-745h-174v726q0 102 -55.5 150t-146.5 48q-89 0 -187.5 -40.5t-167.5 -103.5q3 -24 3 -58v-722h-174l1 726 q0 102 -55.5 150t-147.5 48q-89 0 -185.5 -39.5t-165.5 -101.5v-783h-174z" />
<glyph unicode="n" horiz-adv-x="1247" d="M158 0v1024h174v-136q90 68 210 111t230 43q143 0 235.5 -75t92.5 -222v-745h-174l1 726q0 101 -60.5 149.5t-157.5 48.5q-97 -1 -202 -44t-175 -109v-771h-174z" />
<glyph unicode="o" horiz-adv-x="1267" d="M106 512q0 110 29 203t89.5 168t165.5 118t244 43t243.5 -43t165 -118t89.5 -168t29 -203t-29 -203t-89.5 -168t-165 -118t-243.5 -43t-244 43t-165.5 118t-89.5 168t-29 203zM280 512q0 -198 87 -306t267 -108t267 108t87 306t-87 305.5t-267 107.5t-267 -107.5 t-87 -305.5z" />
<glyph unicode="p" horiz-adv-x="1267" d="M168 -369v1393h152l5 -136q73 68 173.5 112t191.5 44q99 0 179 -28.5t134 -77.5t90.5 -117t52.5 -145t16 -163q0 -112 -26 -205.5t-79 -168.5t-144 -117.5t-213 -42.5q-177 0 -358 107v-455h-174zM342 193q147 -93 296 -95q92 0 160 30.5t109.5 86.5t61.5 130.5t20 167.5 t-20 166.5t-61.5 129.5t-109.5 86t-160 30q-77 -2 -158 -40.5t-138 -102.5v-589z" />
<glyph unicode="q" horiz-adv-x="1257" d="M106 513q0 86 16 163t52.5 145t90.5 117t134 77.5t179 28.5q91 0 190.5 -44t173.5 -112l6 136h151v-1393h-173v455q-181 -107 -358 -107q-122 0 -213 42.5t-144 117.5t-79 168.5t-26 205.5zM279 513q0 -125 34.5 -215.5t115 -144.5t201.5 -54q151 2 296 94v589 q-57 64 -138 102.5t-158 40.5q-92 0 -160 -30t-109.5 -86t-61.5 -129.5t-20 -166.5z" />
<glyph unicode="r" horiz-adv-x="907" d="M158 0v1024h174v-161q196 180 388 180q62 0 126 -18l-5 -131q-76 19 -135 19q-182 0 -374 -170v-743h-174z" />
<glyph unicode="s" horiz-adv-x="1077" d="M82 77v117q231 -117 429 -117q289 0 289 185q0 25 -5 46t-12 36.5t-21.5 29.5t-26.5 23.5t-33.5 18t-36 13.5t-41.5 11t-42.5 8.5t-46 7.5t-45.5 8q-10 2 -29 5q-47 8 -71.5 13t-68.5 16.5t-69 23.5t-57 33.5t-48.5 47t-29 63t-12.5 83.5q0 77 38.5 135t105 92t147.5 51 t174 17q194 0 360 -60v-106q-174 69 -351 69q-130 0 -215 -45t-85 -134q0 -38 12.5 -66t33 -45t51 -28.5t63 -18.5t72.5 -14q9 -1 14 -2q13 -2 40 -7q49 -8 76 -13t76.5 -17.5t79 -26t67.5 -37t59 -51.5t36 -68.5t15 -89.5q0 -155 -117 -229.5t-322 -74.5q-211 0 -453 97z " />
<glyph unicode="t" horiz-adv-x="876" d="M51 905v119h207v273h174v-273h329v-119h-330v-582q0 -240 227 -240q35 0 103 10v-97q-82 -16 -156 -16q-73 0 -132.5 17t-109.5 54.5t-78 106.5t-28 165l1 582h-207z" />
<glyph unicode="u" horiz-adv-x="1236" d="M147 279v745h174v-726q0 -101 60 -149.5t157 -48.5q97 1 202.5 44t175.5 109v771h174v-1024h-174v136q-89 -68 -209.5 -111t-229.5 -43q-144 0 -237 74.5t-93 222.5z" />
<glyph unicode="v" horiz-adv-x="1144" d="M62 1024h175l335 -869l336 869h175l-409 -1026h-203z" />
<glyph unicode="w" horiz-adv-x="1669" d="M62 1024h160l246 -875l278 875h177l278 -875l246 875h160l-300 -1024h-203l-270 842l-269 -842h-204z" />
<glyph unicode="x" horiz-adv-x="1157" d="M62 0l418 531l-384 493h183l301 -396l298 396h183l-384 -496l418 -528h-183l-335 434l-332 -434h-183z" />
<glyph unicode="y" horiz-adv-x="1146" d="M62 1024h175l335 -861l337 861h175l-559 -1393h-155l142 369h-39z" />
<glyph unicode="z" horiz-adv-x="1105" d="M82 0v106l689 800h-654v118h863v-106l-689 -800h705v-118h-914z" />
<glyph unicode="{" horiz-adv-x="858" d="M61 490v132h71q161 0 161 183l-1 332q0 99 27 170.5t74 110t102.5 56t121.5 17.5h162v-122h-117q-98 0 -156 -55t-58 -191l2 -318q0 -185 -132 -249q133 -64 133 -249l-2 -317q0 -137 58 -192.5t156 -55.5h117v-121h-162q-66 0 -121.5 17.5t-103 56t-74.5 110t-27 170.5 l2 332q0 183 -162 183h-71z" />
<glyph unicode="|" horiz-adv-x="356" d="M96 -295v1831h164v-1831h-164z" />
<glyph unicode="}" horiz-adv-x="858" d="M79 -258h117q98 0 156 55.5t58 192.5l-2 317q0 186 132 249q-132 64 -132 249l2 318q0 136 -58 191t-156 55h-117v122h162q66 0 121.5 -17.5t103 -56t74.5 -110t27 -170.5l-2 -332q0 -183 162 -183h70v-132h-70q-162 0 -162 -183l1 -332q0 -99 -27 -170.5t-74 -110 t-102.5 -56t-121.5 -17.5h-162v121z" />
<glyph unicode="~" horiz-adv-x="1351" d="M90 398q-5 148 47 259.5t157 157.5q61 26 124 26q142 0 308 -148q39 -39 55.5 -54.5t49 -41.5t61 -36t58.5 -10q99 0 144 78t47 198l120 -1q4 -148 -46 -254t-150 -148q-54 -22 -107 -22q-131 0 -291 151q-39 39 -54 53.5t-48 41t-61.5 36.5t-60.5 10q-33 0 -68 -13 q-143 -53 -147 -283h-138z" />
<glyph unicode="&#xa2;" horiz-adv-x="1089" d="M106 512q0 119 35 215.5t97 161t144 102.5t178 47l2 181l130 -1l-2 -177q158 -8 304 -81v-123q-89 42 -167.5 60t-173.5 18q-177 0 -275 -98.5t-98 -304.5t98 -304.5t275 -98.5q95 0 173.5 18t167.5 60v-122q-150 -75 -303 -81l-1 -179h-130l1 181q-96 9 -178 47 t-144 102t-97.5 161t-35.5 216z" />
<glyph unicode="&#xa3;" horiz-adv-x="1341" d="M158 -2v135q94 42 142.5 119t53.5 176l1 203h-197v122h199v293q0 87 27.5 156.5t74.5 116t112 77.5t138 44.5t155 13.5q154 0 311 -47v-133q-153 48 -302 48q-71 0 -130.5 -16.5t-107 -50t-74 -91t-26.5 -133.5v-278h617v-122h-619l-1 -202q-8 -195 -168 -296h874v-135 h-1080z" />
<glyph unicode="&#xa5;" horiz-adv-x="1445" d="M82 1434h194l447 -727l447 727h193l-362 -583h225v-122h-299l-100 -158l-6 -61h405v-121h-415v-389h-177v389h-411v121h401l-6 61l-100 158h-295v122h222z" />
<glyph unicode="&#xa9;" horiz-adv-x="1656" d="M89 717q0 150 59 286.5t158 235t236 157t287 58.5t287 -58.5t236 -157t157.5 -235t58.5 -286.5t-58.5 -286.5t-157.5 -235t-236 -157t-287 -58.5t-287 58.5t-236 157t-158 235t-59 286.5zM196 718q0 -129 50.5 -246t135.5 -202t202 -135.5t245 -50.5t245 50.5t202 135.5 t135.5 202t50.5 246t-50.5 246t-135.5 202t-202 135.5t-245 50.5t-245 -50.5t-202 -135.5t-135.5 -202t-50.5 -246zM464 717q0 96 29.5 171.5t81 121t117.5 69t142 23.5q120 0 239 -52v-90q-130 64 -233 64q-121 0 -195 -77t-74 -230t74 -230.5t195 -77.5q101 0 233 65v-91 q-117 -51 -240 -51q-76 0 -142 23.5t-117 69.5t-80.5 121t-29.5 171z" />
<glyph unicode="&#xad;" d="M89 638v122h803v-121z" />
<glyph unicode="&#xae;" horiz-adv-x="1656" d="M89 717q0 150 59 286.5t158 235t236 157t287 58.5t287 -58.5t236 -157t157.5 -235t58.5 -286.5t-58.5 -286.5t-157.5 -235t-236 -157t-287 -58.5t-287 58.5t-236 157t-158 235t-59 286.5zM196 718q0 -129 50.5 -246t135.5 -202t202 -135.5t245 -50.5t245 50.5t202 135.5 t135.5 202t50.5 246t-50.5 246t-135.5 202t-202 135.5t-245 50.5t-245 -50.5t-202 -135.5t-135.5 -202t-50.5 -246zM548 358v730h327q98 0 160.5 -52.5t62.5 -159.5q0 -90 -45 -140.5t-120 -62.5l212 -315h-101l-206 307h-198v-307h-92zM640 733h223q66 0 105 34.5t39 108.5 t-39 109t-105 35h-223v-287z" />
<glyph unicode="&#xb4;" horiz-adv-x="464" d="M90 1198l117 280h162l-154 -280h-125z" />
<glyph unicode="&#x2000;" horiz-adv-x="845" />
<glyph unicode="&#x2001;" horiz-adv-x="1690" />
<glyph unicode="&#x2002;" horiz-adv-x="845" />
<glyph unicode="&#x2003;" horiz-adv-x="1690" />
<glyph unicode="&#x2004;" horiz-adv-x="563" />
<glyph unicode="&#x2005;" horiz-adv-x="422" />
<glyph unicode="&#x2006;" horiz-adv-x="281" />
<glyph unicode="&#x2007;" horiz-adv-x="281" />
<glyph unicode="&#x2008;" horiz-adv-x="211" />
<glyph unicode="&#x2009;" horiz-adv-x="338" />
<glyph unicode="&#x200a;" horiz-adv-x="93" />
<glyph unicode="&#x2010;" d="M89 638v122h803v-121z" />
<glyph unicode="&#x2011;" d="M89 638v122h803v-121z" />
<glyph unicode="&#x2012;" d="M89 638v122h803v-121z" />
<glyph unicode="&#x2013;" horiz-adv-x="1118" d="M89 638v122h940v-121z" />
<glyph unicode="&#x2014;" horiz-adv-x="1378" d="M89 638v122h1201v-121z" />
<glyph unicode="&#x2018;" horiz-adv-x="477" d="M89 995l194 518h139l-139 -518h-194z" />
<glyph unicode="&#x2019;" horiz-adv-x="477" d="M55 995l139 518h194l-195 -518h-138z" />
<glyph unicode="&#x201c;" horiz-adv-x="878" d="M89 995l194 518h139l-139 -518h-194zM491 995l194 518h139l-139 -518h-194z" />
<glyph unicode="&#x201d;" horiz-adv-x="878" d="M55 995l139 518h194l-195 -518h-138zM457 995l139 518h194l-194 -518h-139z" />
<glyph unicode="&#x2022;" horiz-adv-x="921" d="M89 636q0 154 109 263t263 109t262.5 -109t108.5 -263t-108.5 -262.5t-262.5 -108.5t-263 108.5t-109 262.5z" />
<glyph unicode="&#x2026;" horiz-adv-x="1458" d="M89 0v221h189v-221h-189zM635 0v221h189v-221h-189zM1180 0v221h189v-221h-189z" />
<glyph unicode="&#x202f;" horiz-adv-x="338" />
<glyph unicode="&#x205f;" horiz-adv-x="422" />
<glyph unicode="&#x20ac;" horiz-adv-x="1480" d="M89 528v98h168q-4 58 -4 90q0 60 6 116h-170v99h186q37 174 135.5 293.5t231 174t292.5 54.5q217 0 436 -98v-160q-243 119 -435 119q-179 0 -307 -96t-174 -287h555v-99h-572q-6 -54 -6 -116q0 -32 4 -90h483v-98h-469q42 -204 171.5 -306.5t314.5 -102.5q192 0 435 119 v-160q-216 -96 -441 -96q-121 0 -227.5 33t-194.5 98.5t-150 171.5t-87 243h-181z" />
<glyph unicode="&#x2122;" horiz-adv-x="1785" d="M55 1345v89h680v-89h-282v-713h-116v713h-282zM878 632v802h134l275 -483l275 483h134v-802h-112v630l-251 -428h-92l-252 428v-630h-111z" />
<glyph unicode="&#x25fc;" horiz-adv-x="1024" d="M0 0v1024h1024v-1024h-1024z" />
</font>
</defs>
</svg>
